<svg xmlns="http://www.w3.org/2000/svg" xml:space="preserve" width="2048" height="2048" style="shape-rendering:geometricPrecision;text-rendering:geometricPrecision;image-rendering:optimizeQuality;fill-rule:evenodd;clip-rule:evenodd"><defs><style>.fil2{fill:#fffffe}</style></defs><g id="Layer_x0020_1"><rect width="2048" height="2048" rx="256.001" ry="256.001" style="fill:#c0ca33"/><path style="fill:none" d="M255.999 255.999h1536v1536h-1536z"/><path class="fil2" d="M684.276 1177h-.125v-32c0-1.256.087-3.355.231-8.552 2.378-85.814 40.427-165.2 103.29-223.055 56.396-51.905 128.318-82.57 203.974-89.328v-1.55h32c3.198 0 6.477.199 9.692.245 28.576.407 57.273 3.435 85.036 10.358 27.958 6.973 55.052 17.488 80.254 31.475l28.001 15.541-62.1 111.684-27.958-15.516c-15.346-8.518-31.913-14.84-48.934-19.085-18.176-4.533-36.905-6.71-55.631-6.71h-.862c-2.504.005-4.994.01-7.498.01h-7.611c-52.419 1.724-102.96 21.246-141.775 56.968-37.325 34.352-60.641 81.121-62.141 132.154.014 1.788.033 3.572.033 5.362v32h-.126l-.005 407.894c-.002 52.792 28.072 101.184 66.335 136.011 41.976 38.208 96.99 59.449 153.749 59.449h.875c2.36 0 4.715.112 7.068.114 55.25.069 108.956-19.583 149.74-57.127 37.51-34.527 60.899-81.584 62.307-132.888.042-1.556.082-3.117.081-4.673l-.125-320.1h127.75l.125 320.074c.001 2.736-.03 5.471-.105 8.206-2.362 85.96-40.475 165.512-103.44 223.47-64.418 59.297-149.053 90.894-236.411 90.79-3.078-.004-6.15-.072-9.227-.119-87.85-1.332-173.296-33.295-238.467-92.615-64.631-58.827-108.007-140.275-108.007-228.84v-.876l.006-408.77z"/><path class="fil2" d="M1476.17 900.279h.125v32c0 1.259-.088 3.357-.231 8.55-2.379 85.816-40.426 165.202-103.29 223.057-56.398 51.907-128.32 82.572-203.977 89.328v1.55h-32c-3.198 0-6.475-.199-9.69-.245-28.575-.408-57.274-3.436-85.037-10.36-27.958-6.973-55.053-17.487-80.256-31.475l-28-15.54 62.1-111.685 27.958 15.516c15.347 8.519 31.914 14.841 48.935 19.086 18.176 4.533 36.906 6.71 55.633 6.71h.862c2.502-.004 4.992-.009 7.495-.009h7.612c52.42-1.724 102.96-21.245 141.776-56.968 37.325-34.352 60.642-81.123 62.142-132.155-.015-1.788-.033-3.571-.033-5.36v-32h.125l.004-407.896c0-52.792-28.072-101.184-66.336-136.011-41.978-38.207-96.988-59.449-153.748-59.449h-.875c-2.361 0-4.718-.112-7.072-.115-55.25-.067-108.953 19.587-149.738 57.13-37.51 34.526-60.897 81.582-62.304 132.886a166.692 166.692 0 0 0-.082 4.674l.126 320.1h-127.75l-.126-320.074c0-2.736.031-5.472.106-8.206 2.36-85.96 40.472-165.512 103.437-223.47 64.417-59.294 149.053-90.894 236.408-90.79 3.079.004 6.152.072 9.23.119 87.851 1.332 173.294 33.295 238.466 92.615 64.631 58.827 108.008 140.275 108.008 228.84v.876l-.005 408.772z"/></g></svg>